<svg width="100" height="100" viewBox="0 0 100 100" fill="none" xmlns="http://www.w3.org/2000/svg">
<rect width="100" height="100" fill="black"/>
<path d="M7.58565 40.0153C8.01322 39.8904 8.67546 39.7671 9.57235 39.6455C10.5119 39.5243 11.4723 39.4671 12.4536 39.4742C13.3923 39.4809 14.2238 39.5508 14.9482 39.684C15.7153 39.8175 16.3534 40.0781 16.8627 40.4657C17.3719 40.8534 17.7521 41.3895 18.0032 42.0739C18.2973 42.7161 18.4405 43.5705 18.4328 44.6371L18.3344 58.3967C18.3218 60.146 18.7395 61.4077 19.5873 62.1818C20.4354 62.9132 21.6701 63.2847 23.2914 63.2963C24.2727 63.3034 25.0626 63.2237 25.6612 63.0573C26.3024 62.8912 26.7943 62.7241 27.1368 62.5559L27.2971 40.1564C27.7247 40.0315 28.387 39.9082 29.2838 39.7866C30.2234 39.6654 31.1838 39.6082 32.1651 39.6153C33.1038 39.622 33.9353 39.6919 34.6597 39.8251C35.4268 39.9586 36.0649 40.2192 36.5742 40.6068C37.0834 40.9945 37.4636 41.5306 37.7147 42.215C38.0088 42.8572 38.152 43.7115 38.1443 44.7782L38.0051 64.2337C37.9898 66.367 37.0824 67.9605 35.2828 69.0143C33.7828 69.9423 31.9858 70.6334 29.8918 71.0878C27.8402 71.5851 25.5984 71.8251 23.1665 71.8077C20.8625 71.7912 18.7311 71.5199 16.7721 70.9939C14.8559 70.4682 13.1976 69.6669 11.7972 68.5902C10.3969 67.5135 9.31869 66.1404 8.56262 64.471C7.80686 62.7588 7.43753 60.7081 7.45463 58.3189L7.58565 40.0153ZM72.3308 61.5993C71.7728 62.0647 71.0447 62.4435 70.1466 62.7357C69.2915 62.9856 68.2879 63.1064 67.136 63.0982C65.6 63.0872 64.3214 62.886 63.3002 62.4947C62.3216 62.1037 61.6864 61.4378 61.3944 60.497C60.2267 56.7339 59.267 53.6976 58.5156 51.3882C57.7644 49.0361 57.1817 46.9838 56.7676 45.2315L56.4476 45.2292C56.3016 47.7456 56.1784 50.0487 56.0781 52.1387C56.0208 54.1864 55.9638 56.1914 55.9071 58.1537C55.893 60.1163 55.8361 62.0999 55.7365 64.1046C55.6794 66.1096 55.5782 68.3276 55.4328 70.7586C54.8766 70.968 54.1501 71.1334 53.2532 71.255C52.356 71.4193 51.4594 71.4982 50.5634 71.4918C48.6862 71.4783 47.2163 71.1691 46.154 70.5642C45.1343 69.9595 44.6301 68.8679 44.6414 67.2893L46.731 34.6634C47.0763 34.1112 47.8272 33.5192 48.9837 32.8875C50.1403 32.2557 51.7639 31.9473 53.8545 31.9623C56.1158 31.9785 57.8838 32.3538 59.1586 33.0883C60.4336 33.7801 61.3642 34.9175 61.9502 36.5004C62.3269 37.5271 62.7238 38.7033 63.141 40.029C63.6008 41.355 64.039 42.7235 64.4556 44.1345C64.9149 45.5458 65.3528 46.957 65.7694 48.368C66.1862 49.7364 66.5614 50.9764 66.8948 52.0882L67.2147 52.0905C68.2644 48.5139 69.3131 45.0653 70.3609 41.7447C71.409 38.3815 72.3678 35.5723 73.2373 33.3171C73.8797 32.9803 74.6923 32.7088 75.6752 32.5025C76.701 32.2539 77.8325 32.1339 79.0698 32.1428C81.1605 32.1578 82.8648 32.49 84.1828 33.1394C85.5012 33.7462 86.2629 34.6264 86.468 35.7799C86.6325 36.6344 86.7937 37.9582 86.9516 39.7514C87.1524 41.5022 87.3515 43.4877 87.549 45.7078C87.7464 47.928 87.9429 50.2761 88.1385 52.7522C88.3342 55.2284 88.5091 57.619 88.6632 59.9242C88.8604 62.187 89.0161 64.2788 89.1303 66.1997C89.2449 68.0779 89.3198 69.5291 89.3552 70.5534C88.6268 70.9749 87.8567 71.268 87.0448 71.4329C86.2753 71.6407 85.2719 71.7402 84.0346 71.7314C82.4133 71.7198 81.05 71.4327 79.9447 70.8701C78.8393 70.3075 78.2498 69.2152 78.1761 67.5933C77.9534 62.9409 77.8126 58.7585 77.7539 55.046C77.7378 51.3338 77.6747 48.2186 77.5648 45.7004L77.2448 45.6981C76.8062 47.359 76.1726 49.4452 75.3439 51.9566C74.5153 54.4681 73.5109 57.6823 72.3308 61.5993Z" fill="white"/>
</svg>
